<?xml version="1.0" standalone="no"?><!DOCTYPE svg PUBLIC "-//W3C//DTD SVG 1.1//EN" "http://www.w3.org/Graphics/SVG/1.1/DTD/svg11.dtd"><svg t="1556602356697" class="icon" style="" viewBox="0 0 1024 1024" version="1.1" xmlns="http://www.w3.org/2000/svg" p-id="20302" xmlns:xlink="http://www.w3.org/1999/xlink" width="12" height="12"><defs><style type="text/css"></style></defs><path d="M682.666667 643.456V554.666667l170.666666 128-170.666666 128v-81.792c-25.898667 0-52.693333-3.456-78.933334-11.733334a191.445333 191.445333 0 0 1-79.232-46.933333c-22.4-22.4-54.784-59.52-95.104-108.202667l-10.410666-12.672a6936.789333 6936.789333 0 0 1-111.36-139.136L287.317333 384H170.666667V298.666667h512V213.333333l170.666666 128-170.666666 128V384H395.52a8018.56 8018.56 0 0 0 89.344 111.146667l10.282667 12.416c38.698667 46.72 69.76 82.346667 89.685333 102.272 11.818667 11.818667 26.752 20.352 44.458667 25.898666 17.066667 5.376 35.413333 7.68 53.376 7.722667z" p-id="20303" fill="#dbdbdb"></path></svg>