<?xml version="1.0" standalone="no"?><!DOCTYPE svg PUBLIC "-//W3C//DTD SVG 1.1//EN" "http://www.w3.org/Graphics/SVG/1.1/DTD/svg11.dtd"><svg t="1556596623408" class="icon" style="" viewBox="0 0 1024 1024" version="1.1" xmlns="http://www.w3.org/2000/svg" p-id="16121" xmlns:xlink="http://www.w3.org/1999/xlink" width="12" height="12"><defs><style type="text/css"></style></defs><path d="M768 416.896c43.904-43.84 43.904-109.696 0-153.6-43.904-43.84-117.056-43.84-160.896-7.296-43.904 36.544-43.904 109.696 0 153.6 43.84 43.904 116.992 51.2 160.896 7.296z m-109.696-51.2a35.328 35.328 0 0 1 0-51.2 35.328 35.328 0 0 1 51.2 0 35.328 35.328 0 0 1 0 51.2 35.328 35.328 0 0 1-51.2 0z m-512 563.2a35.328 35.328 0 0 1-51.2 0 35.328 35.328 0 0 1 0-51.2l387.648-387.648-14.656-21.952c-58.496-102.4-43.84-226.752 36.608-314.496 102.4-102.4 263.296-102.4 358.4 0 95.04 102.4 102.4 263.296 0 358.4-80.448 87.744-204.8 102.4-307.2 43.904l-21.952-14.656-160.896 160.896 80.448 80.512a35.328 35.328 0 0 0 51.2 0 35.328 35.328 0 0 0 0-51.2l-21.952-29.312L548.48 636.352c124.352 58.496 277.952 36.544 373.056-65.856 131.648-131.648 131.648-336.448 0-468.096-131.648-131.648-336.448-124.352-468.096 0C358.4 204.8 329.152 351.104 387.648 475.456L36.544 826.496c-43.84 43.904-43.84 109.76 0 153.6 43.904 43.904 109.76 43.904 153.6 0l80.512-80.448-51.2-43.904-73.152 73.152z m307.2-51.2l-131.648-131.648-51.2 58.496 131.648 131.712a35.328 35.328 0 0 0 51.2 0c14.592-21.952 14.592-43.904 0-58.56z" fill="#f4ea2a" p-id="16122"></path></svg>