<?xml version="1.0" standalone="no"?><!DOCTYPE svg PUBLIC "-//W3C//DTD SVG 1.1//EN" "http://www.w3.org/Graphics/SVG/1.1/DTD/svg11.dtd"><svg t="1556588649436" class="icon" style="" viewBox="0 0 1024 1024" version="1.1" xmlns="http://www.w3.org/2000/svg" p-id="15006" xmlns:xlink="http://www.w3.org/1999/xlink" width="12" height="12"><defs><style type="text/css"></style></defs><path d="M132.98 509.253h94.916v47.458h-94.917v-47.458z m142.375 0H417.73v47.458H275.355v-47.458z m189.834 0h94.916v47.458H465.19v-47.458z m142.376 0H749.94v47.458H607.565v-47.458z m189.833 0h94.916v47.458h-94.916v-47.458z m-0.579-379.458l0.579 331.999H227.896l-0.888-331.999 48.266-0.17 0.08 284.71H749.94l-0.193-284.54h47.073z m-569.725 758.61l0.802-284.237 568.923-0.071v284.82h-47.243l0.363-237.289H275.355l0.09 236.778h-48.351z" p-id="15007" fill="#2aa515"></path></svg>