<?xml version="1.0" standalone="no"?><!DOCTYPE svg PUBLIC "-//W3C//DTD SVG 1.1//EN" "http://www.w3.org/Graphics/SVG/1.1/DTD/svg11.dtd"><svg t="1558803868910" class="icon" style="" viewBox="0 0 1024 1024" version="1.1" xmlns="http://www.w3.org/2000/svg" p-id="11853" xmlns:xlink="http://www.w3.org/1999/xlink" width="12" height="12"><defs><style type="text/css"></style></defs><path d="M350 742.6c13.9-24.1 27.9-48.3 41.8-72.4 7.1-12.2 22.7-16.4 34.9-9.4 12.2 7.1 16.4 22.7 9.3 34.9-13.9 24.2-27.9 48.5-41.8 72.6H650c7.2 0 11.3-2.6 14.8-8.9 45-79.5 90-159.1 134.9-238.6 3.4-6.1 3.4-10.7 0-16.8-45-79.5-90-159.1-134.9-238.6-3.5-6.3-7.7-9-14.8-9H374.6c-7.2 0-11.3 2.7-14.8 9-45 79.5-90 159.1-134.9 238.6-3.4 6.1-3.4 10.7 0 16.8 20.2 35.6 40.3 71.2 60.4 106.9 7 12.3 2.6 27.9-9.7 34.8-12.3 6.9-27.9 2.6-34.8-9.7-20.1-35.6-40.3-71.2-60.4-106.8a68.018 68.018 0 0 1 0-67.1c45-79.5 90-159.1 134.9-238.6 12.1-21.4 34.8-34.6 59.3-34.6h275.5c24.6 0 47.2 13.2 59.3 34.6 45 79.5 90 159.1 134.9 238.6 11.8 20.8 11.8 46.3 0 67.1-45 79.5-90 159.1-134.9 238.6-12.1 21.4-34.8 34.6-59.3 34.6H394.3c-39.5 0-64-42.8-44.2-76.9m162.3-349c-65.9 0-119.3 53.4-119.3 119.3s53.4 119.3 119.3 119.3 119.3-53.4 119.3-119.3-53.4-119.3-119.3-119.3z m0 187.4c-37.6 0-68.2-30.5-68.2-68.2s30.5-68.2 68.2-68.2 68.2 30.5 68.2 68.2-30.6 68.2-68.2 68.2z" p-id="11854" fill="#13227a"></path></svg>