<?xml version="1.0" standalone="no"?><!DOCTYPE svg PUBLIC "-//W3C//DTD SVG 1.1//EN" "http://www.w3.org/Graphics/SVG/1.1/DTD/svg11.dtd"><svg t="1558764651567" class="icon" style="" viewBox="0 0 1024 1024" version="1.1" xmlns="http://www.w3.org/2000/svg" p-id="3006" xmlns:xlink="http://www.w3.org/1999/xlink" width="12" height="12"><defs><style type="text/css"></style></defs><path d="M855.424 740.096 507.072 391.744c14.784-61.056-1.344-128-49.024-175.68C402.24 160.256 319.872 147.328 251.648 177.216l98.688 98.688c26.432 26.432 26.432 69.312 0 95.744-26.432 26.432-69.312 26.432-95.744 0L155.904 272.96C126.016 341.12 138.944 423.552 194.752 479.36c47.68 47.68 114.688 63.872 175.68 49.088l348.352 348.352c18.816 18.88 43.584 28.288 68.288 28.288s49.408-9.408 68.288-28.288C893.184 838.976 893.12 777.856 855.424 740.096zM817.024 838.4c-16.512 16.512-43.264 16.512-59.776 0-16.64-16.576-16.64-43.392 0-59.904 16.512-16.512 43.264-16.512 59.776 0S833.472 821.824 817.024 838.4z" p-id="3007" fill="#19fa28"></path></svg>