<?xml version="1.0" standalone="no"?><!DOCTYPE svg PUBLIC "-//W3C//DTD SVG 1.1//EN" "http://www.w3.org/Graphics/SVG/1.1/DTD/svg11.dtd"><svg t="1558763060589" class="icon" style="" viewBox="0 0 1024 1024" version="1.1" xmlns="http://www.w3.org/2000/svg" p-id="2138" xmlns:xlink="http://www.w3.org/1999/xlink" width="32" height="32"><defs><style type="text/css"></style></defs><path d="M502.72 662.848c-13.376 2.56-27.136 3.84-41.216 3.648C349.76 664.768 260.48 572.8 262.208 461.056c1.664-111.872 93.696-201.024 205.44-199.296 111.744 1.664 201.024 93.568 199.296 205.376-0.192 12.544-1.536 24.704-3.968 36.544l74.88 74.816c5.12-12.096 9.344-24.64 12.8-37.44l75.328-18.688 0.384-114.048-75.072-19.2c-6.848-25.856-16.832-50.432-29.952-73.024l40-66.24L680.96 168.896 614.4 208.32C591.744 195.2 567.36 184.896 541.44 177.92L523.008 102.656 408.768 102.336 389.632 177.344C363.776 184.128 339.136 194.24 316.544 207.296L250.24 167.296 169.28 247.808 208.768 314.24C195.584 336.832 185.344 361.28 178.304 387.2L103.104 405.76 102.72 519.936l75.008 19.072c6.72 25.984 16.896 50.432 29.952 73.152L167.744 678.4l80.384 81.024 66.624-39.616c22.464 13.312 46.976 23.616 72.896 30.592l18.56 75.328 114.24 0.32 19.008-75.2c13.184-3.392 25.984-7.616 38.4-12.736L502.72 662.848z" p-id="2139" fill="#8a8a8a"></path><path d="M897.984 786.112 611.776 499.904c12.096-50.112-1.152-105.216-40.32-144.32C525.568 309.696 457.92 299.072 401.856 323.648l81.088 81.088c21.76 21.696 21.76 56.96 0 78.656-21.696 21.696-56.896 21.696-78.656 0L323.2 402.304C298.688 458.304 309.312 526.016 355.136 571.904c39.168 39.104 94.272 52.48 144.384 40.32l286.272 286.208c15.488 15.488 35.776 23.232 56.128 23.232 20.288 0 40.64-7.744 56.128-23.232C929.024 867.392 929.024 817.152 897.984 786.112zM867.776 865.6c-13.632 13.504-35.648 13.504-49.28 0-13.504-13.632-13.504-35.648 0-49.28 13.632-13.504 35.648-13.504 49.28 0C881.28 830.016 881.28 852.032 867.776 865.6z" p-id="2140" fill="#8a8a8a"></path></svg>