<?xml version="1.0" standalone="no"?><!DOCTYPE svg PUBLIC "-//W3C//DTD SVG 1.1//EN" "http://www.w3.org/Graphics/SVG/1.1/DTD/svg11.dtd"><svg t="1558665759836" class="icon" style="" viewBox="0 0 1024 1024" version="1.1" xmlns="http://www.w3.org/2000/svg" p-id="2011" xmlns:xlink="http://www.w3.org/1999/xlink" width="12" height="12"><defs><style type="text/css"></style></defs><path d="M1021.632 127.872c0.512-3.2 1.952-6.016 1.952-9.376 0-35.456-29.568-64.256-66.016-64.256-14.944 0-28.128 5.728-39.2 13.984l-0.64-1.184L36.896 508.512c-21.088 7.328-36.48 26.56-36.48 49.6 0 23.968 16.544 43.456 38.88 50.144l267.392 89.376 0.48-1.056c4.256 1.312 8.576 2.56 13.28 2.56 23.648 0 42.816-18.688 42.816-41.696 0-16.064-9.696-29.696-23.392-36.64l0.32-0.8-204-67.488L835.552 201.984 427.072 648.736c-12.416 10.304-21.472 26.88-21.472 44.064 0 4.576 1.184 45.056 1.184 45.056V928c0 23.072 19.104 41.76 42.816 41.76 23.616 0 42.752-18.688 42.752-41.696V759.68l303.904 101.568c7.616 4.192 15.936 7.136 25.248 7.136 29.184 0 52.736-23.008 52.736-51.424 0-0.128-0.256-0.32-0.256-0.448L1023.552 128.32l-1.92-0.448z m-225.632 645.12l-282.272-95.264L910.88 244.192l-114.88 528.8z m0 0" p-id="2012" fill="#f4ea2a"></path></svg>