<?xml version="1.0" standalone="no"?><!DOCTYPE svg PUBLIC "-//W3C//DTD SVG 1.1//EN" "http://www.w3.org/Graphics/SVG/1.1/DTD/svg11.dtd"><svg t="1556549796888" class="icon" style="" viewBox="0 0 1024 1024" version="1.1" xmlns="http://www.w3.org/2000/svg" p-id="5038" xmlns:xlink="http://www.w3.org/1999/xlink" width="12" height="12"><defs><style type="text/css"></style></defs><path d="M512 467.626667c-10.24 0-20.48-3.413333-27.306667-6.826667l-358.4-170.666667c-20.48-10.24-34.133333-30.72-34.133333-54.613333 0-23.893333 13.653333-44.373333 34.133333-54.613333l358.4-170.666667c17.066667-10.24 37.546667-10.24 54.613334 0l358.4 170.666667c20.48 10.24 34.133333 30.72 34.133333 54.613333 0 23.893333-13.653333 44.373333-34.133333 54.613333l-358.4 170.666667c-6.826667 3.413333-17.066667 6.826667-27.306667 6.826667z m0-419.84c-3.413333 0-6.826667 0-6.826667 3.413333l-358.4 170.666667c-6.826667 3.413333-10.24 10.24-10.24 13.653333 0 3.413333 0 10.24 10.24 13.653333l358.4 170.666667c3.413333 3.413333 10.24 3.413333 17.066667 0l358.4-170.666667 6.826667-13.653333c0-3.413333 0-10.24-10.24-13.653333l-358.4-170.666667c0-3.413333-3.413333-3.413333-6.826667-3.413333zM419.84 1024c-10.24 0-17.066667-3.413333-27.306667-6.826667l-320.853333-153.6c-20.48-10.24-34.133333-34.133333-34.133333-54.613333V413.013333c0-23.893333 10.24-44.373333 30.72-54.613333 17.066667-10.24 37.546667-10.24 54.613333 0L443.733333 512c20.48 10.24 34.133333 34.133333 34.133334 54.613333v392.533334c0 23.893333-10.24 44.373333-30.72 54.613333-6.826667 6.826667-17.066667 10.24-27.306667 10.24zM95.573333 399.36h-3.413333c-3.413333 3.413333-6.826667 6.826667-6.826667 13.653333v392.533334c0 6.826667 3.413333 10.24 6.826667 13.653333l324.266667 153.6c3.413333 3.413333 6.826667 0 10.24 0 3.413333-3.413333 6.826667-6.826667 6.826666-13.653333V570.026667c0-6.826667-3.413333-10.24-6.826666-13.653334L102.4 399.36h-6.826667zM604.16 1024c-10.24 0-20.48-3.413333-27.306667-6.826667-17.066667-10.24-30.72-30.72-30.72-54.613333V570.026667c0-23.893333 13.653333-44.373333 30.72-54.613334l324.266667-153.6c17.066667-10.24 37.546667-10.24 54.613333 0s30.72 30.72 30.72 54.613334v392.533333c0 23.893333-13.653333 44.373333-30.72 54.613333l-324.266666 153.6c-10.24 3.413333-17.066667 6.826667-27.306667 6.826667z m324.266667-624.64h-3.413334l-324.266666 153.6c-3.413333 3.413333-6.826667 6.826667-6.826667 13.653333v392.533334c0 6.826667 3.413333 13.653333 6.826667 13.653333 3.413333 3.413333 6.826667 3.413333 10.24 0l324.266666-153.6c3.413333-3.413333 6.826667-6.826667 6.826667-13.653333V413.013333c0-6.826667-3.413333-13.653333-6.826667-13.653333h-6.826666z" p-id="5039" fill="#e6e6e6"></path></svg>