<?xml version="1.0" standalone="no"?><!DOCTYPE svg PUBLIC "-//W3C//DTD SVG 1.1//EN" "http://www.w3.org/Graphics/SVG/1.1/DTD/svg11.dtd"><svg t="1556939449978" class="icon" style="" viewBox="0 0 1068 1024" version="1.1" xmlns="http://www.w3.org/2000/svg" p-id="27326" xmlns:xlink="http://www.w3.org/1999/xlink" width="12.515625" height="12"><defs><style type="text/css"></style></defs><path d="M619.742609 204.8a166.15513 166.15513 0 0 1-9.171479-54.717217c0-82.899478 59.792696-150.082783 133.565218-150.082783s133.565217 67.227826 133.565217 150.082783c0 82.899478-59.792696 150.082783-133.565217 150.082782-10.729739 0-21.192348-1.424696-31.254261-4.096a315.436522 315.436522 0 0 1 50.309565 172.076522c0 167.757913-128.089043 303.771826-286.185739 303.771826-158.052174 0-286.185739-136.013913-286.185739-303.771826 0-167.757913 128.133565-303.771826 286.185739-303.771826 52.001391 0 100.708174 14.692174 142.736696 40.425739zM477.005913 686.08c115.934609 0 209.92-95.98887 209.92-214.416696 0-118.427826-93.985391-214.416696-209.92-214.416695C361.115826 257.335652 267.130435 353.28 267.130435 471.707826c0 118.427826 93.94087 214.416696 209.875478 214.416696zM171.720348 300.165565c-52.669217 0-95.410087-47.994435-95.410087-107.208348 0-59.213913 42.74087-107.208348 95.410087-107.208347C224.434087 85.74887 267.130435 133.787826 267.130435 192.957217c0 59.213913-42.74087 107.208348-95.410087 107.208348zM152.709565 986.334609C68.34087 986.334609 0 909.534609 0 814.747826s68.34087-171.542261 152.665043-171.542261c84.279652 0 152.620522 76.8 152.620522 171.542261s-68.34087 171.542261-152.620522 171.542261z m725.036522 0c-105.382957 0-190.775652-95.98887-190.775652-214.416696 0-118.427826 85.392696-214.416696 190.775652-214.416696S1068.521739 653.490087 1068.521739 771.917913c0 118.427826-85.437217 214.416696-190.820174 214.416696z" fill="#01d4f9" p-id="27327"></path></svg>