<?xml version="1.0" standalone="no"?><!DOCTYPE svg PUBLIC "-//W3C//DTD SVG 1.1//EN" "http://www.w3.org/Graphics/SVG/1.1/DTD/svg11.dtd"><svg t="1556938409987" class="icon" style="" viewBox="0 0 1024 1024" version="1.1" xmlns="http://www.w3.org/2000/svg" p-id="25381" xmlns:xlink="http://www.w3.org/1999/xlink" width="12" height="12"><defs><style type="text/css"></style></defs><path d="M652.8 683.435a36.096 36.096 0 0 0 47.787-13.739c13.824-20.48 6.912-33.792-13.654-47.787l-163.925-88.746v-122.88c95.573-13.654 170.667-95.659 170.667-198.059 0-116.139-88.832-204.97-204.971-204.97S283.819 96 283.819 212.223c0 102.485 75.178 184.49 170.752 198.059V526.42L338.517 594.86c-34.048-27.478-75.093-40.875-122.88-40.875-116.138 0-204.97 88.49-204.97 204.8 0 115.541 88.746 204.459 204.97 204.459 116.139 0 204.971-88.747 204.971-204.459 0-40.875-13.653-82.176-34.133-109.653l102.485-61.44 163.84 95.744z m-300.544 74.922c0 75.35-61.525 136.875-136.704 136.875A137.387 137.387 0 0 1 78.933 758.357c0-75.008 61.526-136.618 136.619-136.618 20.565 0 47.872 6.741 61.61 20.565 20.48 13.653 34.134 27.307 47.702 40.875 20.65 20.736 27.392 47.957 27.392 75.178z m0-546.218c0-75.094 61.525-136.704 136.704-136.704s136.619 61.525 136.619 136.704c0 61.525-40.875 116.138-102.315 129.792-13.653 6.826-20.565 6.826-34.219 6.826-13.568 0-20.48 0-34.048-6.826a132.01 132.01 0 0 1-102.741-129.792zM982.613 584.79h-33.706V623.7c0 6.144-5.12 11.179-11.264 11.179H807.595a11.179 11.179 0 0 1-11.179-11.179V584.79h-33.707s-41.386 0-41.386 41.131v35.072H962.73a17.067 17.067 0 0 1 16.81 17.408v284.843h3.072s41.387 0 41.387-41.131V625.92c0-41.13-41.387-41.13-41.387-41.13z" fill="#01d4f9" p-id="25382"></path><path d="M910.336 622.592s19.115 1.365 19.115-18.517c0-19.712-19.115-19.286-19.115-19.286s0.768-37.973-37.803-37.973c-38.4 0-37.802 37.973-37.802 37.973s-19.03 0.854-19.03 19.286c0 18.517 19.03 18.517 19.03 18.517h75.605z m-37.803-56.747a18.944 18.944 0 1 1 0.256 37.803 18.944 18.944 0 0 1-0.256-37.803z" fill="#01d4f9" p-id="25383"></path><path d="M721.237 625.92v296.192c0 41.13 41.387 41.13 41.387 41.13h3.072V678.4a17.067 17.067 0 0 1 16.81-17.408H1024V625.92c0-41.13-41.387-41.13-41.387-41.13h-33.792V623.7a11.179 11.179 0 0 1-11.178 11.179H807.595a11.264 11.264 0 0 1-11.264-11.179V584.79h-33.622s-41.472 0-41.472 41.131z" fill="#01d4f9" p-id="25384"></path><path d="M761.344 918.357h222.464v44.886H761.344z" fill="#01d4f9" p-id="25385"></path></svg>