<?xml version="1.0" standalone="no"?><!DOCTYPE svg PUBLIC "-//W3C//DTD SVG 1.1//EN" "http://www.w3.org/Graphics/SVG/1.1/DTD/svg11.dtd"><svg t="1558926708394" class="icon" style="" viewBox="0 0 1024 1024" version="1.1" xmlns="http://www.w3.org/2000/svg" p-id="4701" xmlns:xlink="http://www.w3.org/1999/xlink" width="12" height="12"><defs><style type="text/css"></style></defs><path d="M512 870.4c-121.018182 0-223.418182-97.745455-223.418182-223.418182S390.981818 428.218182 512 428.218182s223.418182 97.745455 223.418182 223.418182-102.4 218.763636-223.418182 218.763636z m0-372.363636c-83.781818 0-148.945455 69.818182-148.945455 148.945454s69.818182 148.945455 148.945455 148.945455 148.945455-69.818182 148.945455-148.945455-65.163636-148.945455-148.945455-148.945454z" fill="#1296db" p-id="4702"></path><path d="M474.763636 288.581818h69.818182v162.909091h-69.818182zM204.334545 820.177455l154.903273-103.284364 38.725818 58.135273-154.949818 103.237818zM623.057455 777.169455l39.377454-57.623273 153.739636 104.96-39.330909 57.716363z" fill="#1296db" p-id="4703"></path><path d="M139.636364 1010.036364c-69.818182 0-130.327273-55.854545-130.327273-130.327273s55.854545-130.327273 130.327273-130.327273 130.327273 55.854545 130.327272 130.327273-60.509091 130.327273-130.327272 130.327273z m0-186.181819c-32.581818 0-55.854545 27.927273-55.854546 55.854546s27.927273 55.854545 55.854546 55.854545 55.854545-27.927273 55.854545-55.854545-23.272727-55.854545-55.854545-55.854546zM884.363636 1010.036364c-69.818182 0-130.327273-55.854545-130.327272-130.327273s55.854545-130.327273 130.327272-130.327273 130.327273 55.854545 130.327273 130.327273-60.509091 130.327273-130.327273 130.327273z m0-186.181819c-32.581818 0-55.854545 27.927273-55.854545 55.854546s27.927273 55.854545 55.854545 55.854545 55.854545-27.927273 55.854546-55.854545-23.272727-55.854545-55.854546-55.854546zM512 358.4C414.254545 358.4 335.127273 283.927273 335.127273 186.181818S414.254545 9.309091 512 9.309091c97.745455 0 176.872727 79.127273 176.872727 176.872727S609.745455 358.4 512 358.4z m0-279.272727c-55.854545 0-102.4 46.545455-102.4 102.4s46.545455 107.054545 102.4 107.054545c55.854545 0 102.4-46.545455 102.4-107.054545s-46.545455-102.4-102.4-102.4z" fill="#1296db" p-id="4704"></path></svg>